<svg width="62" height="25" viewBox="0 0 62 25" fill="none" xmlns="http://www.w3.org/2000/svg">
<rect width="62" height="25" rx="4" fill="url(#paint0_linear_151_1714)"/>
<path fill-rule="evenodd" clip-rule="evenodd" d="M16 5.83325C12.32 5.83325 9.33331 8.81992 9.33331 12.4999C9.33331 16.1799 12.32 19.1666 16 19.1666C19.68 19.1666 22.6666 16.1799 22.6666 12.4999C22.6666 8.81992 19.68 5.83325 16 5.83325ZM14.6666 15.4999L18.6666 12.4999L14.6666 9.49992V15.4999ZM10.6666 12.4999C10.6666 15.4399 13.06 17.8333 16 17.8333C18.94 17.8333 21.3333 15.4399 21.3333 12.4999C21.3333 9.55992 18.94 7.16659 16 7.16659C13.06 7.16659 10.6666 9.55992 10.6666 12.4999Z" fill="white"/>
<path d="M31.9883 18L36.4263 8.2H37.8123L42.2643 18H40.7943L36.8323 8.984H37.3923L33.4303 18H31.9883ZM33.8783 15.55L34.2563 14.43H39.7723L40.1783 15.55H33.8783ZM43.9013 18V8.2H48.0313C49.0766 8.2 49.9959 8.40533 50.7893 8.816C51.5919 9.22667 52.2126 9.80067 52.6513 10.538C53.0993 11.2753 53.3233 12.1293 53.3233 13.1C53.3233 14.0707 53.0993 14.9247 52.6513 15.662C52.2126 16.3993 51.5919 16.9733 50.7893 17.384C49.9959 17.7947 49.0766 18 48.0313 18H43.9013ZM45.3013 16.782H47.9473C48.7593 16.782 49.4593 16.628 50.0473 16.32C50.6446 16.012 51.1066 15.5827 51.4333 15.032C51.7599 14.472 51.9233 13.828 51.9233 13.1C51.9233 12.3627 51.7599 11.7187 51.4333 11.168C51.1066 10.6173 50.6446 10.188 50.0473 9.88C49.4593 9.572 48.7593 9.418 47.9473 9.418H45.3013V16.782Z" fill="white"/>
<defs>
<linearGradient id="paint0_linear_151_1714" x1="31" y1="0" x2="31" y2="25" gradientUnits="userSpaceOnUse">
<stop stop-color="#7F79FF"/>
<stop offset="1" stop-color="#4E48EC"/>
</linearGradient>
</defs>
</svg>
