<svg width="24" height="24" viewBox="0 0 24 24" fill="none" xmlns="http://www.w3.org/2000/svg">
<path fill-rule="evenodd" clip-rule="evenodd" d="M11.8957 2C6.43023 2 2 6.22188 2 11.6874C2 17.1529 6.43023 21.1666 11.8957 21.1666C17.3612 21.1666 22 17.1529 22 11.6874C22 6.22188 17.3612 2 11.8957 2ZM15.7492 6.10962L17.8597 8.25129L15.7395 10.3765L13.6193 8.26145L15.7492 6.10962ZM8.23558 6.15328L10.3717 8.24274L8.19978 10.42L6.15698 8.25267L8.23558 6.15328ZM11.7999 13.6669C8.02308 13.626 7.80064 17.7091 4.58145 13.9808C4.15667 13.4893 4.40637 12.8739 4.87595 12.8252C5.34785 12.7762 5.50422 13.1765 5.72065 13.5886C7.0578 16.1356 9.18584 12.3156 11.7999 12.3156C14.8169 12.3156 17.0642 16.2536 18.4565 13.4581C18.6346 13.1003 18.8968 12.7344 19.2668 12.8695C19.7944 13.0622 19.6863 13.5657 19.4805 13.8861C16.9567 17.8017 15.7205 13.7091 11.7999 13.6669Z" fill="white"/>
</svg>
