<svg width="120" height="120" viewBox="0 0 120 120" fill="none" xmlns="http://www.w3.org/2000/svg">
<path d="M14.6447 75L27.0047 47H34.8047L47.2047 75H38.9647L29.2847 50.88H32.4047L22.7247 75H14.6447ZM21.4047 69.56L23.4447 63.72H37.1247L39.1647 69.56H21.4047ZM49.55 75V47H62.79C65.8833 47 68.6033 47.5733 70.95 48.72C73.2967 49.8667 75.1233 51.48 76.43 53.56C77.7633 55.64 78.43 58.12 78.43 61C78.43 63.8533 77.7633 66.3333 76.43 68.44C75.1233 70.52 73.2967 72.1333 70.95 73.28C68.6033 74.4267 65.8833 75 62.79 75H49.55ZM57.47 68.68H62.47C64.07 68.68 65.4567 68.3867 66.63 67.8C67.83 67.1867 68.7633 66.3067 69.43 65.16C70.0967 63.9867 70.43 62.6 70.43 61C70.43 59.3733 70.0967 57.9867 69.43 56.84C68.7633 55.6933 67.83 54.8267 66.63 54.24C65.4567 53.6267 64.07 53.32 62.47 53.32H57.47V68.68ZM92.5369 75.56C90.2435 75.56 88.0302 75.28 85.8969 74.72C83.7902 74.1333 82.0702 73.3867 80.7369 72.48L83.3369 66.64C84.5902 67.44 86.0302 68.1067 87.6569 68.64C89.3102 69.1467 90.9502 69.4 92.5769 69.4C93.6702 69.4 94.5502 69.3067 95.2169 69.12C95.8835 68.9067 96.3635 68.64 96.6569 68.32C96.9769 67.9733 97.1369 67.5733 97.1369 67.12C97.1369 66.48 96.8435 65.9733 96.2569 65.6C95.6702 65.2267 94.9102 64.92 93.9769 64.68C93.0435 64.44 92.0035 64.2 90.8569 63.96C89.7369 63.72 88.6035 63.4133 87.4569 63.04C86.3369 62.6667 85.3102 62.1867 84.3769 61.6C83.4435 60.9867 82.6835 60.2 82.0969 59.24C81.5102 58.2533 81.2169 57.0133 81.2169 55.52C81.2169 53.84 81.6702 52.32 82.5769 50.96C83.5102 49.6 84.8969 48.5067 86.7369 47.68C88.5769 46.8533 90.8702 46.44 93.6169 46.44C95.4569 46.44 97.2569 46.6533 99.0169 47.08C100.804 47.48 102.39 48.08 103.777 48.88L101.337 54.76C100.004 54.04 98.6835 53.5067 97.3769 53.16C96.0702 52.7867 94.8035 52.6 93.5769 52.6C92.4835 52.6 91.6035 52.72 90.9369 52.96C90.2702 53.1733 89.7902 53.4667 89.4969 53.84C89.2035 54.2133 89.0569 54.64 89.0569 55.12C89.0569 55.7333 89.3369 56.2267 89.8969 56.6C90.4835 56.9467 91.2435 57.24 92.1769 57.48C93.1369 57.6933 94.1769 57.92 95.2969 58.16C96.4435 58.4 97.5769 58.7067 98.6969 59.08C99.8435 59.4267 100.884 59.9067 101.817 60.52C102.75 61.1067 103.497 61.8933 104.057 62.88C104.644 63.84 104.937 65.0533 104.937 66.52C104.937 68.1467 104.47 69.6533 103.537 71.04C102.63 72.4 101.257 73.4933 99.4169 74.32C97.6035 75.1467 95.3102 75.56 92.5369 75.56Z" fill="white"/>
<path fill-rule="evenodd" clip-rule="evenodd" d="M87.8646 100.311C79.9535 105.79 70.3516 109 60 109C32.938 109 11 87.062 11 60C11 46.8 16.2195 34.819 24.7072 26.0085L87.8646 100.311ZM95.4647 93.8121L32.34 19.5478C40.2118 14.1549 49.7375 11 60 11C87.062 11 109 32.938 109 60C109 73.1106 103.851 85.0187 95.4647 93.8121ZM120 60C120 93.1371 93.1371 120 60 120C26.8629 120 0 93.1371 0 60C0 26.8629 26.8629 0 60 0C93.1371 0 120 26.8629 120 60Z" fill="#FE0000"/>
</svg>
