<svg width="24" height="24" viewBox="0 0 24 24" fill="none" xmlns="http://www.w3.org/2000/svg">
<path fill-rule="evenodd" clip-rule="evenodd" d="M3.02959 6.54499C3.07456 5.98431 3.32064 5.45877 3.72249 5.06519L5.34667 3.44122C5.49116 3.29494 5.66447 3.18028 5.8556 3.1045C6.04673 3.02872 6.25152 2.99347 6.45699 3.00099C6.66246 3.00851 6.86413 3.05864 7.04921 3.14819C7.23429 3.23774 7.39876 3.36476 7.53217 3.52121L9.70127 6.02706C9.94855 6.31239 10.0785 6.68082 10.065 7.05815C10.0515 7.43547 9.89553 7.79367 9.62848 8.06058L8.22467 9.46459C8.11204 9.57247 8.02947 9.70786 7.98511 9.85738C7.94075 10.0069 7.93613 10.1654 7.97171 10.3173C8.29648 11.7056 9.01158 12.9721 10.0326 13.9674C11.0279 14.9884 12.2944 15.7035 13.6827 16.0283C13.8346 16.0639 13.9931 16.0593 14.1426 16.0149C14.2921 15.9705 14.4275 15.888 14.5354 15.7753L15.9394 14.3715C16.2063 14.1045 16.5645 13.9485 16.9418 13.935C17.3192 13.9215 17.6876 14.0514 17.9729 14.2987L20.4794 16.4678C20.6359 16.6012 20.7631 16.7656 20.8527 16.9507C20.9423 17.1358 20.9925 17.3375 21 17.543C21.0075 17.7485 20.9722 17.9533 20.8964 18.1445C20.8205 18.3356 20.7058 18.5089 20.5594 18.6533L18.9352 20.2775C18.5416 20.6794 18.0161 20.9254 17.4554 20.9704C16.998 21.0112 16.5378 21.0098 16.0806 20.9664C13.1936 20.701 10.0624 18.8791 7.59156 16.4084C5.1207 13.9378 3.29895 10.8064 3.03359 7.9198C2.99018 7.46262 2.98884 7.00242 3.02959 6.54499Z" fill="white"/>
</svg>
