<svg width="32" height="32" viewBox="0 0 32 32" fill="none" xmlns="http://www.w3.org/2000/svg">
<path fill-rule="evenodd" clip-rule="evenodd" d="M14.5218 6.95608C14.4936 6.95627 14.4654 6.95344 14.4377 6.94766C14.3835 6.93662 14.332 6.91501 14.2862 6.88407C14.2404 6.85314 14.2011 6.81347 14.1706 6.76735C14.1402 6.72124 14.1191 6.66956 14.1085 6.61528C14.098 6.56101 14.0983 6.50519 14.1094 6.45103L14.5303 4.34663C14.5402 4.29139 14.561 4.23868 14.5916 4.19162C14.6222 4.14455 14.6618 4.10407 14.7083 4.07257C14.7547 4.04106 14.807 4.01917 14.862 4.00817C14.9171 3.99716 14.9738 3.99728 15.0287 4.00851C15.0837 4.01974 15.1359 4.04185 15.1822 4.07354C15.2286 4.10524 15.2681 4.14588 15.2984 4.19307C15.3288 4.24026 15.3495 4.29305 15.3591 4.34834C15.3688 4.40362 15.3673 4.46028 15.3548 4.51498L14.9339 6.61938C14.9145 6.71437 14.8629 6.79976 14.7878 6.86111C14.7128 6.92246 14.6188 6.956 14.5218 6.95608ZM12.4179 6.95611C12.4923 6.95602 12.5654 6.93618 12.6297 6.89862C12.694 6.86105 12.7472 6.8071 12.7838 6.74228C12.8204 6.67745 12.8392 6.60407 12.8382 6.52961C12.8372 6.45516 12.8165 6.38231 12.7781 6.31848L11.5155 4.21409C11.4876 4.16565 11.4503 4.12327 11.4058 4.08941C11.3613 4.05555 11.3105 4.03089 11.2564 4.01688C11.2022 4.00287 11.1459 3.99978 11.0905 4.0078C11.0352 4.01581 10.982 4.03478 10.9341 4.06357C10.8862 4.09237 10.8445 4.13043 10.8114 4.17553C10.7784 4.22062 10.7546 4.27185 10.7416 4.32622C10.7286 4.38059 10.7265 4.43701 10.7355 4.49219C10.7445 4.54737 10.7645 4.6002 10.7941 4.64759L12.0567 6.75199C12.0942 6.8143 12.1471 6.86586 12.2104 6.90163C12.2737 6.9374 12.3452 6.95617 12.4179 6.95611ZM20.0155 5.22533C20.0924 5.49292 20.0601 5.78009 19.9257 6.02392L16.956 11.3552C16.9268 11.4036 16.9076 11.4573 16.8997 11.5132C16.8917 11.5692 16.8951 11.6261 16.9096 11.6807C16.9241 11.7353 16.9494 11.7864 16.9841 11.831C17.0188 11.8756 17.0621 11.9128 17.1115 11.9403C17.1608 11.9678 17.2152 11.9851 17.2714 11.9911C17.3275 11.9971 17.3843 11.9918 17.4384 11.9754C17.4925 11.959 17.5427 11.9319 17.586 11.8957C17.6294 11.8595 17.665 11.815 17.6908 11.7647L21.4787 4.96625C21.6148 4.73181 21.8345 4.55749 22.0937 4.47826C22.353 4.39903 22.6326 4.42075 22.8765 4.53906C22.9968 4.60233 23.103 4.68944 23.1886 4.79508C23.2742 4.90073 23.3374 5.02269 23.3744 5.15354C23.4198 5.30348 23.4345 5.46101 23.4177 5.61676C23.4009 5.77251 23.353 5.92329 23.2767 6.06012L19.5284 12.7891C19.5005 12.8374 19.4824 12.8908 19.4754 12.9461C19.4683 13.0015 19.4722 13.0577 19.487 13.1115C19.5019 13.1653 19.5272 13.2156 19.5617 13.2595C19.5961 13.3034 19.6389 13.34 19.6876 13.3672C19.7363 13.3944 19.7899 13.4116 19.8454 13.4179C19.9008 13.4242 19.9569 13.4194 20.0105 13.4038C20.0641 13.3882 20.114 13.3621 20.1574 13.327C20.2008 13.2919 20.2368 13.2486 20.2632 13.1995L23.2346 7.86737C23.3717 7.63459 23.591 7.46167 23.8493 7.38281C24.1077 7.30394 24.3862 7.32487 24.6299 7.44144C24.7492 7.50426 24.8545 7.59062 24.9395 7.69529C25.0245 7.79997 25.0874 7.92079 25.1244 8.05046C25.1712 8.20169 25.1871 8.36078 25.1714 8.5183C25.1556 8.67582 25.1085 8.82858 25.0326 8.96755L21.8988 14.5918C21.87 14.6401 21.8513 14.6938 21.8436 14.7495C21.836 14.8053 21.8396 14.862 21.8543 14.9163C21.8689 14.9707 21.8943 15.0215 21.929 15.0659C21.9636 15.1102 22.0068 15.1471 22.056 15.1745C22.1052 15.2019 22.1593 15.2191 22.2153 15.2252C22.2712 15.2312 22.3278 15.226 22.3817 15.2098C22.4356 15.1936 22.4857 15.1668 22.529 15.1309C22.5724 15.095 22.6081 15.0508 22.6341 15.0009L24.7856 11.1401V11.1355C24.9237 10.9039 25.1436 10.7325 25.402 10.6553C25.6603 10.5781 25.9383 10.6006 26.1808 10.7184C26.3003 10.7808 26.4059 10.8669 26.491 10.9714C26.5761 11.076 26.639 11.1969 26.6758 11.3266C26.7218 11.4773 26.7371 11.6357 26.7205 11.7924C26.7039 11.9491 26.6559 12.1009 26.5794 12.2386L24.3634 16.2155H13.5666L15.5498 13.9575C15.9055 13.6125 16.1311 13.1551 16.1883 12.6629C16.2455 12.1706 16.1309 11.6737 15.8638 11.2563C15.6507 10.9383 15.354 10.6852 15.0065 10.5248C15.4274 9.76973 16.1843 8.41123 16.8415 7.23164L16.8437 7.22777L16.8453 7.22497L16.8461 7.2235L16.8575 7.20301L16.8605 7.19752C17.5138 6.02501 18.0638 5.03784 18.0789 5.01129L18.0839 5.00287C18.2237 4.76179 18.4528 4.58548 18.7216 4.51212C18.8528 4.47272 18.9906 4.45987 19.1269 4.47432C19.2632 4.48878 19.3953 4.53024 19.5153 4.5963C19.7587 4.73155 19.9385 4.95775 20.0155 5.22533ZM8.19222 11.0187C8.35353 10.925 8.53334 10.8675 8.71912 10.8503C9.02387 10.8371 9.32376 10.9301 9.5675 11.1135C9.81124 11.2969 9.98371 11.5593 10.0554 11.8558L10.4708 13.0288C9.91063 13.5759 9.20566 14.2645 8.32181 15.1294L7.59622 12.4568C7.54851 12.2765 7.54069 12.0879 7.57331 11.9042C7.60593 11.7205 7.67819 11.5461 7.78508 11.3931C7.89197 11.2402 8.03091 11.1124 8.19222 11.0187ZM26.517 20.0035H18.7308C18.6191 20.0035 18.5121 19.9592 18.4332 19.8803C18.3542 19.8013 18.3099 19.6943 18.3099 19.5827C18.3099 19.471 18.3542 19.364 18.4332 19.2851C18.5121 19.2061 18.6191 19.1618 18.7308 19.1618H24.8335C25.1126 19.1618 25.3802 19.0509 25.5775 18.8536C25.7749 18.6563 25.8857 18.3886 25.8857 18.1096C25.8788 17.8327 25.7657 17.5691 25.5699 17.3732C25.374 17.1774 25.1104 17.0643 24.8335 17.0574H12.6364C12.5555 17.0574 12.4763 17.034 12.4083 16.9901C12.3403 16.9463 12.2864 16.8837 12.2531 16.81C12.2197 16.7363 12.2083 16.6545 12.2203 16.5744C12.2322 16.4944 12.267 16.4195 12.3204 16.3587L14.937 13.3789C15.1613 13.172 15.3068 12.8935 15.3485 12.5912C15.3902 12.2888 15.3255 11.9814 15.1655 11.7215C15.0614 11.5671 14.9244 11.4377 14.7642 11.3427C14.6041 11.2476 14.4249 11.1893 14.2396 11.1718C14.1948 11.1671 14.1499 11.1647 14.1049 11.1647C13.7725 11.1628 13.4528 11.2924 13.2156 11.5253C13.1651 11.5738 7.59809 17.0161 7.59809 17.0161C6.75351 17.8544 5.61084 18.3233 4.42088 18.32C4.30926 18.32 4.2022 18.3644 4.12327 18.4433C4.04434 18.5222 4 18.6293 4 18.7409V25.8958C4 26.0075 4.04434 26.1145 4.12327 26.1935C4.2022 26.2724 4.30926 26.3167 4.42088 26.3167H5.59471C6.66743 26.3156 7.71629 26.6332 8.6082 27.2292C9.36207 27.7326 10.2484 28.001 11.1549 28.0002H22.6492C22.806 27.9993 22.9611 27.967 23.1053 27.9052C23.2496 27.8434 23.3799 27.7533 23.4888 27.6404C23.5844 27.5444 23.6596 27.4301 23.7099 27.3043C23.7601 27.1785 23.7844 27.0439 23.7813 26.9085C23.7656 26.6382 23.6485 26.3839 23.4535 26.1962C23.2584 26.0085 22.9998 25.9012 22.7291 25.8958H18.3099C18.1983 25.8958 18.0912 25.8515 18.0123 25.7726C17.9334 25.6936 17.889 25.5866 17.889 25.475C17.889 25.3633 17.9334 25.2563 18.0123 25.1774C18.0912 25.0984 18.1983 25.0541 18.3099 25.0541H24.7493C24.9066 25.0531 25.0622 25.0207 25.2067 24.9587C25.3513 24.8966 25.482 24.8063 25.5911 24.693C25.687 24.5973 25.7626 24.4832 25.8132 24.3576C25.8639 24.2319 25.8885 24.0973 25.8857 23.9619C25.87 23.6917 25.7529 23.4374 25.5578 23.2498C25.3628 23.0621 25.1041 22.955 24.8335 22.9497H18.7308C18.6191 22.9497 18.5121 22.9053 18.4332 22.8264C18.3542 22.7475 18.3099 22.6404 18.3099 22.5288C18.3099 22.4172 18.3542 22.3101 18.4332 22.2312C18.5121 22.1523 18.6191 22.1079 18.7308 22.1079H26.4329C26.5902 22.107 26.7457 22.0745 26.8903 22.0125C27.0348 21.9505 27.1655 21.8601 27.2746 21.7468C27.3706 21.6512 27.4462 21.5371 27.4968 21.4115C27.5475 21.2858 27.5721 21.1512 27.5692 21.0158C27.5535 20.7456 27.4364 20.4912 27.2413 20.3036C27.0463 20.116 26.7876 20.0088 26.517 20.0035ZM11.4236 8.54347C11.348 8.60574 11.2531 8.63971 11.1552 8.63953C11.1016 8.63963 11.0484 8.62949 10.9986 8.60964L8.89421 7.76788C8.79051 7.72636 8.70755 7.64534 8.66359 7.54266C8.61962 7.43997 8.61825 7.32402 8.65978 7.22032C8.7013 7.11662 8.78232 7.03367 8.88501 6.9897C8.9877 6.94574 9.10364 6.94437 9.20734 6.98589L11.3117 7.82765C11.4027 7.86389 11.4782 7.93073 11.5252 8.01665C11.5722 8.10256 11.5878 8.20218 11.5692 8.29834C11.5507 8.39451 11.4992 8.48119 11.4236 8.54347Z" fill="white"/>
</svg>
