<svg width="24" height="24" viewBox="0 0 24 24" fill="none" xmlns="http://www.w3.org/2000/svg">
<path d="M12 2C10.0222 2 8.08879 2.58649 6.4443 3.6853C4.79981 4.78412 3.51809 6.3459 2.76121 8.17316C2.00433 10.0004 1.8063 12.0111 2.19215 13.9509C2.578 15.8907 3.53041 17.6725 4.92894 19.0711C6.32746 20.4696 8.10929 21.422 10.0491 21.8078C11.9889 22.1937 13.9996 21.9957 15.8268 21.2388C17.6541 20.4819 19.2159 19.2002 20.3147 17.5557C21.4135 15.9112 22 13.9778 22 12C22 9.34783 20.9464 6.8043 19.0711 4.92893C17.1957 3.05357 14.6522 2 12 2ZM7.5587 11.55C7.5587 11.252 7.64706 10.9608 7.81259 10.713C7.97813 10.4653 8.21342 10.2722 8.4887 10.1582C8.76398 10.0441 9.06689 10.0143 9.35913 10.0724C9.65136 10.1306 9.9198 10.274 10.1305 10.4847C10.3412 10.6954 10.4847 10.9639 10.5428 11.2561C10.6009 11.5483 10.5711 11.8512 10.4571 12.1265C10.343 12.4018 10.1499 12.6371 9.9022 12.8026C9.65445 12.9682 9.36318 13.0565 9.06522 13.0565C8.66567 13.0565 8.28248 12.8978 7.99995 12.6153C7.71742 12.3327 7.5587 11.9496 7.5587 11.55ZM12 19.963C11.3926 19.9626 10.7989 19.7821 10.294 19.4443C9.78917 19.1065 9.3958 18.6266 9.16364 18.0653C8.93148 17.504 8.87096 16.8864 8.98973 16.2907C9.10849 15.695 9.40122 15.1479 9.8309 14.7185C10.2606 14.2891 10.8079 13.9968 11.4037 13.8784C11.9995 13.7601 12.617 13.821 13.1782 14.0536C13.7393 14.2861 14.219 14.6799 14.5564 15.185C14.8938 15.6901 15.0739 16.2839 15.0739 16.8913C15.0739 17.2949 14.9944 17.6945 14.8399 18.0673C14.6854 18.4401 14.4589 18.7789 14.1735 19.0641C13.888 19.3494 13.5491 19.5756 13.1762 19.7298C12.8032 19.8841 12.4036 19.9633 12 19.963ZM14.9348 13.0587C14.6368 13.0587 14.3456 12.9703 14.0978 12.8048C13.8501 12.6393 13.657 12.404 13.5429 12.1287C13.4289 11.8534 13.3991 11.5505 13.4572 11.2583C13.5153 10.966 13.6588 10.6976 13.8695 10.4869C14.0802 10.2762 14.3486 10.1327 14.6409 10.0746C14.9331 10.0165 15.236 10.0463 15.5113 10.1603C15.7866 10.2744 16.0219 10.4674 16.1874 10.7152C16.353 10.9629 16.4413 11.2542 16.4413 11.5522C16.4413 11.9517 16.2826 12.3349 16.0001 12.6174C15.7175 12.9 15.3343 13.0587 14.9348 13.0587Z" fill="white"/>
</svg>
