<svg width="30" height="30" viewBox="0 0 30 30" fill="none" xmlns="http://www.w3.org/2000/svg">
<path d="M25.657 11.5536L18.7371 10.5462L15.5434 4.0791C15.4951 3.98038 15.42 3.89721 15.3268 3.83903C15.2336 3.78084 15.1259 3.75 15.016 3.75C14.9061 3.75 14.7985 3.78084 14.7052 3.83903C14.612 3.89721 14.537 3.98038 14.4887 4.0791L11.275 10.5462L4.34524 11.5412C4.21696 11.5596 4.09641 11.6136 3.99724 11.697C3.89806 11.7805 3.82423 11.89 3.7841 12.0132C3.74398 12.1365 3.73916 12.2685 3.77019 12.3943C3.80123 12.5201 3.86687 12.6347 3.9597 12.7252L8.98417 17.6228L7.79273 24.6421C7.77327 24.7589 7.78676 24.8788 7.83169 24.9884C7.87662 25.0979 7.9512 25.1928 8.04705 25.2623C8.14291 25.3318 8.25625 25.3732 8.37433 25.3818C8.49242 25.3905 8.61058 25.366 8.71554 25.3112L15.0061 21.9981L21.3091 25.3112C21.4136 25.3627 21.5303 25.3845 21.6463 25.3742C21.7624 25.3639 21.8734 25.322 21.9673 25.253C22.0612 25.184 22.1344 25.0905 22.1788 24.9828C22.2233 24.8751 22.2373 24.7573 22.2194 24.6421L21.028 17.6228L26.0425 12.7351C26.1346 12.6446 26.1996 12.5302 26.2302 12.4047C26.2608 12.2792 26.2558 12.1477 26.2158 12.0249C26.1757 11.9022 26.1022 11.793 26.0035 11.7097C25.9047 11.6265 25.7847 11.5724 25.657 11.5536Z" fill="#F2DD2D"/>
</svg>
