<svg width="24" height="24" viewBox="0 0 24 24" fill="none" xmlns="http://www.w3.org/2000/svg">
<path d="M11.6756 6.19304C11.5501 6.07009 11.3815 6.00122 11.2059 6.00122C11.0302 6.00122 10.8616 6.07009 10.7361 6.19304L8.85728 8.07189C8.76653 8.16414 8.70439 8.28065 8.67834 8.4074L7.71655 12.7019L2.19182 18.2267C2.06887 18.3521 2 18.5207 2 18.6964C2 18.872 2.06887 19.0407 2.19182 19.1661L4.80879 21.8054C4.93423 21.9284 5.10287 21.9973 5.27851 21.9973C5.45415 21.9973 5.62279 21.9284 5.74822 21.8054L11.2953 16.2807L15.6122 15.3189C15.739 15.2929 15.8555 15.2307 15.9477 15.14L17.8042 13.2611C17.9272 13.1357 17.996 12.967 17.996 12.7914C17.996 12.6158 17.9272 12.4471 17.8042 12.3217L11.6756 6.19304ZM5.27851 20.3963L3.60096 18.7187L4.71933 17.6004L6.39688 19.2779L5.27851 20.3963Z" fill="currentColor"/>
<path d="M18.4146 4.63299L15.7417 7.30591L16.6907 8.25487L19.3636 5.58195L18.4146 4.63299Z" fill="currentColor"/>
<path d="M21.4159 8.33132L17.8716 10.0447L18.4557 11.2529L22 9.53959L21.4159 8.33132Z" fill="currentColor"/>
<path d="M14.4612 1.99995L12.7479 5.54419L13.9561 6.12829L15.6695 2.58405L14.4612 1.99995Z" fill="currentColor"/>
</svg>
