<svg width="24" height="24" viewBox="0 0 24 24" fill="none" xmlns="http://www.w3.org/2000/svg">
<path fill-rule="evenodd" clip-rule="evenodd" d="M20.5121 5.59294C20.9181 5.59294 21.2471 5.92834 21.2471 6.34207V7.38627H2.75288V4.74911C2.75288 4.33538 3.08194 4 3.48785 4H10.6465C11.0394 4 11.3628 4.31501 11.3807 4.7151L11.4198 5.59294H20.5121ZM2.61576 8.1677H21.3843C21.7454 8.1677 22.0289 8.47731 21.9976 8.83738L21.0864 19.3265C21.0588 19.645 20.7924 19.8894 20.473 19.8894H3.52699C3.20762 19.8894 2.94125 19.645 2.91359 19.3265L2.00236 8.83738C1.97107 8.47731 2.25466 8.1677 2.61576 8.1677Z" fill="white"/>
</svg>
