<svg width="24" height="24" viewBox="0 0 24 24" fill="none" xmlns="http://www.w3.org/2000/svg">
<path d="M4.32978 16.594L6.17627 18.4627L8.91265 21.2436C8.93489 21.2659 8.93489 21.2659 8.95714 21.2881C9.42433 21.733 10.0472 22 10.7146 22H15.787C17.144 22 18.2564 20.9321 18.3453 19.5973V6.91657C18.3453 6.29366 17.8337 5.78198 17.2108 5.78198C16.5878 5.78198 16.0762 6.29366 16.0762 6.91657V11.4105V11.4994C16.0762 11.5884 15.9872 11.6774 15.8982 11.6774C15.8092 11.6774 15.7202 11.5884 15.7202 11.4994V11.4105V4.02447C15.7202 3.40156 15.2085 2.88988 14.5856 2.88988C13.9627 2.88988 13.451 3.40156 13.451 4.02447V11.4105V11.4994C13.451 11.5884 13.362 11.6774 13.273 11.6774C13.1841 11.6774 13.0951 11.5884 13.0951 11.4994V11.4105V3.13459C13.0951 2.51168 12.5834 2 11.9605 2C11.3376 2 10.8259 2.51168 10.8259 3.13459V11.4105V11.4994C10.8259 11.5884 10.7369 11.6774 10.6479 11.6774C10.5589 11.6774 10.4699 11.5884 10.4699 11.4994V11.4105V5.95996C10.4699 5.33704 9.95825 4.82536 9.33534 4.82536C8.86815 4.82536 8.44546 5.11457 8.26748 5.53726C8.20074 5.67075 8.1785 5.82647 8.1785 5.9822V8.71858V10.2981V16.7497C8.1785 16.8387 8.15625 16.9944 8.06726 16.9944C8.02277 16.9944 7.97827 16.9944 7.93378 16.9499C7.93378 16.9499 7.93378 16.9499 7.91153 16.9499L6.28751 15.3259L5.9983 15.0367C5.5756 14.6363 4.88595 14.5695 4.44101 14.9477C3.88484 15.3259 3.86259 16.1268 4.32978 16.594Z" fill="currentColor"/>
</svg>
