<svg width="24" height="24" viewBox="0 0 24 24" fill="none" xmlns="http://www.w3.org/2000/svg">
<path d="M12 3C7.02951 3 3 7.02951 3 12C3 16.9712 7.02987 21 12.0004 21C16.9712 21 21 16.9712 21 12C21 7.02951 16.9712 3 12 3ZM12.3807 6.56009C13.034 6.56009 13.5634 7.08988 13.5634 7.74323C13.5634 8.39659 13.034 8.92638 12.3807 8.92638C11.7273 8.92638 11.1975 8.39659 11.1975 7.74323C11.1975 7.08988 11.7273 6.56009 12.3807 6.56009ZM13.4413 17.028C13.4413 17.028 12.5092 17.8096 11.3349 17.2201C11.0743 17.0898 10.8541 16.8636 10.7135 16.6147C10.3148 15.9095 10.4682 15.1528 10.4682 15.1528L10.5853 14.225L10.8896 11.8054L10.0609 11.8235C9.67277 11.8324 9.35248 11.5245 9.34396 11.1368C9.33721 10.8357 9.52363 10.5743 9.78853 10.4689L11.9123 9.63264C12.4179 9.43344 12.9889 9.682 13.1878 10.1876C13.2637 10.3797 13.2748 10.58 13.2314 10.7668L13.2034 10.8928L12.3728 14.5399L12.1655 15.4518C12.1349 15.5892 12.1303 15.6205 12.1214 15.6925C12.0991 16.103 12.6828 15.7952 12.6828 15.7952C13.0333 15.6016 13.4743 15.7298 13.6668 16.0803C13.8482 16.4095 13.7431 16.8192 13.4413 17.028Z" fill="white"/>
</svg>
