<svg width="24" height="24" viewBox="0 0 24 24" fill="none" xmlns="http://www.w3.org/2000/svg">
<path fill-rule="evenodd" clip-rule="evenodd" d="M8.41476 7.23683C9.10616 4.91973 10.2747 3.27854 11.5995 3V7.48254C10.5336 7.47275 9.46957 7.39066 8.41476 7.23683ZM12.4005 7.48254V3C13.7253 3.27854 14.8939 4.91971 15.5853 7.23683C14.5305 7.39066 13.4664 7.47275 12.4005 7.48254ZM11.5996 8.28826C10.4636 8.27552 9.32975 8.18521 8.20603 8.01798C7.93251 9.19208 7.78309 10.3917 7.7602 11.597H11.5996L11.5996 8.28826ZM19.3886 17.1794C18.802 16.7227 17.807 16.3694 16.597 16.124C16.8723 14.9022 17.021 13.6552 17.0407 12.4029H21C20.9263 14.1156 20.3675 15.7721 19.3886 17.1794ZM11.5996 12.4029H7.7602C7.7831 13.6082 7.93253 14.8078 8.20603 15.9819C9.32975 15.8147 10.4636 15.7244 11.5996 15.7116V12.4029ZM6.9593 12.4029C6.97903 13.6552 7.1277 14.9022 7.40297 16.124C6.193 16.3695 5.19799 16.7227 4.61149 17.1795C3.63256 15.7722 3.07369 14.1156 3 12.4029H6.9593ZM12.4005 11.597H16.2399C16.217 10.3917 16.0676 9.19208 15.7941 8.01798C14.6703 8.1852 13.5365 8.2755 12.4005 8.28824L12.4005 11.597ZM7.40297 7.87584C7.1277 9.0977 6.97903 10.3447 6.9593 11.597H3C3.07369 9.88423 3.63256 8.22769 4.61149 6.82035C5.19799 7.27715 6.193 7.63037 7.40297 7.87584ZM12.4005 21C13.7254 20.7214 14.8939 19.0802 15.5853 16.763C14.5305 16.6092 13.4664 16.5271 12.4005 16.5173V21ZM7.60521 16.9052C8.07979 18.5492 8.78915 19.8849 9.65131 20.7516C7.86373 20.2622 6.27025 19.2341 5.08752 17.8072C5.47863 17.5068 6.32955 17.1629 7.60521 16.9052ZM5.08752 6.19279C5.47863 6.49318 6.32955 6.83707 7.60523 7.09479C8.07982 5.4507 8.78921 4.11502 9.65141 3.24841C7.86379 3.7378 6.27027 4.76586 5.08752 6.19279ZM16.3948 16.9052C17.6704 17.1629 18.5213 17.5067 18.9125 17.8071C17.7298 19.2341 16.1363 20.2622 14.3486 20.7516C15.2108 19.8849 15.9202 18.5493 16.3948 16.9052ZM14.3486 3.24841C15.2108 4.11502 15.9202 5.45071 16.3948 7.09479C17.6705 6.83709 18.5214 6.49326 18.9126 6.19288C17.7299 4.7659 16.1363 3.73781 14.3486 3.24841ZM11.5995 16.5173V21C10.2747 20.7214 9.10611 19.0802 8.41476 16.763C9.46958 16.6092 10.5336 16.5271 11.5995 16.5173ZM12.4005 15.7116C13.5365 15.7244 14.6703 15.8147 15.7941 15.9819C16.0676 14.8078 16.217 13.6082 16.2399 12.4029H12.4005L12.4005 15.7116ZM17.0407 11.597C17.021 10.3447 16.8723 9.09775 16.597 7.87591C17.807 7.63046 18.802 7.27725 19.3886 6.82047C20.3675 8.22779 20.9263 9.8843 21 11.597H17.0407Z" fill="white"/>
</svg>
