<svg width="24" height="24" viewBox="0 0 24 24" fill="none" xmlns="http://www.w3.org/2000/svg">
<path d="M21.7793 2.01599C19.6473 1.73142 15.6132 5.335 15.1326 5.64829C14.3582 5.2998 13.5421 5.08622 12.691 5.09674H11.7648C10.9138 5.08602 10.0979 5.2996 9.32322 5.64829C8.8099 5.31356 4.56113 1.95916 2.42936 2.24373C1.24152 2.40189 2.82355 9.04557 3.50192 10.4438C2.2089 12.3245 2.17027 15.6071 4.71868 18.1201C7.6083 20.9707 12.0812 22 12.0812 22H12.374C12.374 22 16.8473 20.9707 19.7367 18.1201C22.2857 15.6071 22.2467 12.3249 20.9537 10.4438C21.6325 9.04557 22.9671 2.17436 21.7793 2.01599ZM5.87841 12.2998C8.9262 11.1122 9.32201 14.002 9.32201 14.002C6.27402 15.7831 5.87841 12.2998 5.87841 12.2998ZM12.1396 17.6165C13.5443 17.4311 13.4009 18.11 13.4009 18.11C12.7158 17.7735 12.5229 18.1661 12.5229 18.1661C12.5601 18.7698 12.3734 18.9569 12.1431 18.9569C11.9082 18.9569 11.6821 18.7077 11.7507 18.1661C11.7507 18.1661 11.5848 17.766 10.8806 18.0649C10.8806 18.0649 10.8415 17.3629 12.1396 17.6165ZM10.4947 20.6898C12.1594 20.4554 12.0314 19.2603 12.0314 19.2603C12.0622 20.6382 13.6068 20.8627 13.6068 20.8627C11.6514 20.5517 10.4947 20.6898 10.4947 20.6898ZM14.6806 14.1268C14.6806 14.1268 15.0764 11.2372 18.1241 12.4248C18.1241 12.4248 17.7287 15.9083 14.6806 14.1268Z" fill="white"/>
</svg>

