<svg width="24" height="24" viewBox="0 0 24 24" fill="none" xmlns="http://www.w3.org/2000/svg">
<path d="M12 8.97949C11.0321 8.97949 10.248 9.76348 10.248 10.7275C10.248 11.6915 11.0321 12.4755 12 12.4755C12.964 12.4755 13.748 11.6915 13.748 10.7275C13.748 9.76348 12.964 8.97949 12 8.97949Z" fill="white"/>
<path d="M18.3872 6.1741L19.5892 4.97236C19.8277 5.11355 20.1026 5.2 20.4 5.2C21.28 5.2 22 4.48398 22 3.6C22 2.71599 21.28 2 20.4 2C19.516 2 18.8 2.71599 18.8 3.6C18.8 3.89524 18.8855 4.16819 19.0248 4.40554L17.7198 5.71028C16.1005 4.67747 14.1267 4.06799 11.996 4.06799C9.86628 4.06799 7.89236 4.67778 6.27268 5.71111L4.97168 4.4104C5.11318 4.172 5.2 3.89722 5.2 3.6C5.2 2.71599 4.48001 2 3.6 2C2.71599 2 2 2.71599 2 3.6C2 4.48398 2.71599 5.2 3.6 5.2C3.89429 5.2 4.16719 5.11436 4.40474 4.97471L5.6053 6.175C3.43728 7.82156 2.05601 10.2858 2.05601 13.036C2.05601 17.98 6.51599 22 11.996 22C17.48 22 21.936 17.98 21.936 13.036C21.936 10.2853 20.5555 7.82065 18.3872 6.1741ZM15.044 18.1602C14.2046 18.7754 13.1015 19.0828 11.9983 19.0828C10.8952 19.0828 9.79209 18.7754 8.95225 18.1602C8.77412 18.0297 8.73545 17.7793 8.86592 17.6012C8.996 17.4227 9.24756 17.384 9.4249 17.5148C10.8437 18.5539 13.1526 18.5539 14.5714 17.5148C14.7491 17.3836 14.9991 17.4227 15.1304 17.6012C15.2608 17.7793 15.2222 18.0297 15.044 18.1602ZM12 14.476C9.93201 14.476 8.248 12.796 8.248 10.728C8.248 8.65999 9.93201 6.98 12 6.98C14.064 6.98 15.748 8.65999 15.748 10.728C15.748 12.796 14.064 14.476 12 14.476Z" fill="white"/>
</svg>
