<svg width="66" height="25" viewBox="0 0 66 25" fill="none" xmlns="http://www.w3.org/2000/svg">
<rect width="66" height="25" rx="4" fill="url(#paint0_linear_132_586)"/>
<path d="M9.56668 18V8.2H10.7147L17.1967 16.25H16.5947V8.2H17.9947V18H16.8467L10.3647 9.95H10.9667V18H9.56668ZM24.085 18.084C23.3383 18.084 22.6757 17.9207 22.097 17.594C21.5183 17.2673 21.061 16.8193 20.725 16.25C20.389 15.6713 20.221 15.018 20.221 14.29C20.221 13.5527 20.389 12.8993 20.725 12.33C21.061 11.7607 21.5183 11.3173 22.097 11C22.6757 10.6733 23.3383 10.51 24.085 10.51C24.8223 10.51 25.4803 10.6733 26.059 11C26.647 11.3173 27.1043 11.7607 27.431 12.33C27.767 12.89 27.935 13.5433 27.935 14.29C27.935 15.0273 27.767 15.6807 27.431 16.25C27.1043 16.8193 26.647 17.2673 26.059 17.594C25.4803 17.9207 24.8223 18.084 24.085 18.084ZM24.085 16.908C24.561 16.908 24.9857 16.8007 25.359 16.586C25.7417 16.3713 26.0403 16.068 26.255 15.676C26.4697 15.2747 26.577 14.8127 26.577 14.29C26.577 13.758 26.4697 13.3007 26.255 12.918C26.0403 12.526 25.7417 12.2227 25.359 12.008C24.9857 11.7933 24.561 11.686 24.085 11.686C23.609 11.686 23.1843 11.7933 22.811 12.008C22.4377 12.2227 22.139 12.526 21.915 12.918C21.691 13.3007 21.579 13.758 21.579 14.29C21.579 14.8127 21.691 15.2747 21.915 15.676C22.139 16.068 22.4377 16.3713 22.811 16.586C23.1843 16.8007 23.609 16.908 24.085 16.908ZM38.5095 18V16.432L38.4395 16.138V13.464C38.4395 12.8947 38.2715 12.456 37.9355 12.148C37.6088 11.8307 37.1142 11.672 36.4515 11.672C36.0128 11.672 35.5835 11.7467 35.1635 11.896C34.7435 12.036 34.3888 12.2273 34.0995 12.47L33.5395 11.462C33.9222 11.154 34.3795 10.9207 34.9115 10.762C35.4528 10.594 36.0175 10.51 36.6055 10.51C37.6228 10.51 38.4068 10.7573 38.9575 11.252C39.5082 11.7467 39.7835 12.5027 39.7835 13.52V18H38.5095ZM36.0735 18.084C35.5228 18.084 35.0375 17.9907 34.6175 17.804C34.2068 17.6173 33.8895 17.3607 33.6655 17.034C33.4415 16.698 33.3295 16.32 33.3295 15.9C33.3295 15.4987 33.4228 15.1347 33.6095 14.808C33.8055 14.4813 34.1182 14.22 34.5475 14.024C34.9862 13.828 35.5742 13.73 36.3115 13.73H38.6635V14.696H36.3675C35.6955 14.696 35.2428 14.808 35.0095 15.032C34.7762 15.256 34.6595 15.5267 34.6595 15.844C34.6595 16.208 34.8042 16.502 35.0935 16.726C35.3828 16.9407 35.7842 17.048 36.2975 17.048C36.8015 17.048 37.2402 16.936 37.6135 16.712C37.9962 16.488 38.2715 16.1613 38.4395 15.732L38.7055 16.656C38.5282 17.0947 38.2155 17.4447 37.7675 17.706C37.3195 17.958 36.7548 18.084 36.0735 18.084ZM45.5117 18.084C44.793 18.084 44.149 17.9253 43.5797 17.608C43.0197 17.2907 42.5763 16.8473 42.2497 16.278C41.923 15.7087 41.7597 15.046 41.7597 14.29C41.7597 13.534 41.923 12.876 42.2497 12.316C42.5763 11.7467 43.0197 11.3033 43.5797 10.986C44.149 10.6687 44.793 10.51 45.5117 10.51C46.137 10.51 46.7017 10.65 47.2057 10.93C47.7097 11.21 48.111 11.63 48.4097 12.19C48.7177 12.75 48.8717 13.45 48.8717 14.29C48.8717 15.13 48.7223 15.83 48.4237 16.39C48.1343 16.95 47.7377 17.3747 47.2337 17.664C46.7297 17.944 46.1557 18.084 45.5117 18.084ZM45.6237 16.908C46.0903 16.908 46.5103 16.8007 46.8837 16.586C47.2663 16.3713 47.565 16.068 47.7797 15.676C48.0037 15.2747 48.1157 14.8127 48.1157 14.29C48.1157 13.758 48.0037 13.3007 47.7797 12.918C47.565 12.526 47.2663 12.2227 46.8837 12.008C46.5103 11.7933 46.0903 11.686 45.6237 11.686C45.1477 11.686 44.723 11.7933 44.3497 12.008C43.9763 12.2227 43.6777 12.526 43.4537 12.918C43.2297 13.3007 43.1177 13.758 43.1177 14.29C43.1177 14.8127 43.2297 15.2747 43.4537 15.676C43.6777 16.068 43.9763 16.3713 44.3497 16.586C44.723 16.8007 45.1477 16.908 45.6237 16.908ZM48.1577 18V15.998L48.2417 14.276L48.1017 12.554V7.612H49.4457V18H48.1577ZM54.2916 18.084C53.6756 18.084 53.0876 18 52.5276 17.832C51.977 17.664 51.543 17.4587 51.2256 17.216L51.7856 16.152C52.103 16.3667 52.495 16.5487 52.9616 16.698C53.4283 16.8473 53.9043 16.922 54.3896 16.922C55.015 16.922 55.463 16.8333 55.7336 16.656C56.0136 16.4787 56.1536 16.2313 56.1536 15.914C56.1536 15.6807 56.0696 15.4987 55.9016 15.368C55.7336 15.2373 55.5096 15.1393 55.2296 15.074C54.959 15.0087 54.6556 14.9527 54.3196 14.906C53.9836 14.85 53.6476 14.7847 53.3116 14.71C52.9756 14.626 52.6676 14.514 52.3876 14.374C52.1076 14.2247 51.8836 14.024 51.7156 13.772C51.5476 13.5107 51.4636 13.1653 51.4636 12.736C51.4636 12.288 51.5896 11.896 51.8416 11.56C52.0936 11.224 52.4483 10.9673 52.9056 10.79C53.3723 10.6033 53.923 10.51 54.5576 10.51C55.043 10.51 55.533 10.5707 56.0276 10.692C56.5316 10.804 56.9423 10.9673 57.2596 11.182L56.6856 12.246C56.3496 12.022 55.9996 11.868 55.6356 11.784C55.2716 11.7 54.9076 11.658 54.5436 11.658C53.9556 11.658 53.517 11.756 53.2276 11.952C52.9383 12.1387 52.7936 12.3813 52.7936 12.68C52.7936 12.932 52.8776 13.128 53.0456 13.268C53.223 13.3987 53.447 13.5013 53.7176 13.576C53.9976 13.6507 54.3056 13.716 54.6416 13.772C54.9776 13.8187 55.3136 13.884 55.6496 13.968C55.9856 14.0427 56.289 14.15 56.5596 14.29C56.8396 14.43 57.0636 14.626 57.2316 14.878C57.409 15.13 57.4976 15.466 57.4976 15.886C57.4976 16.334 57.367 16.7213 57.1056 17.048C56.8443 17.3747 56.4756 17.6313 55.9996 17.818C55.5236 17.9953 54.9543 18.084 54.2916 18.084Z" fill="white"/>
<defs>
<linearGradient id="paint0_linear_132_586" x1="33" y1="0" x2="33" y2="25" gradientUnits="userSpaceOnUse">
<stop stop-color="#7F79FF"/>
<stop offset="1" stop-color="#4E48EC"/>
</linearGradient>
</defs>
</svg>
