<svg width="32" height="32" viewBox="0 0 32 32" fill="none" xmlns="http://www.w3.org/2000/svg">
<path fill-rule="evenodd" clip-rule="evenodd" d="M17.7775 2.66675C17.5321 2.66675 17.333 2.86586 17.333 3.11119C17.333 3.35653 17.5321 3.55564 17.7775 3.55564C20.9632 3.55564 23.5552 6.14764 23.5552 9.33341C23.5552 9.57875 23.7543 9.77786 23.9997 9.77786C24.245 9.77786 24.4441 9.57875 24.4441 9.33341C24.4441 5.65741 21.4535 2.66675 17.7775 2.66675Z" fill="white"/>
<path fill-rule="evenodd" clip-rule="evenodd" d="M17.7775 4.88892C17.5321 4.88892 17.333 5.08803 17.333 5.33336C17.333 5.57869 17.5321 5.7778 17.7775 5.7778C19.7379 5.7778 21.333 7.37292 21.333 9.33336C21.333 9.57869 21.5321 9.7778 21.7775 9.7778C22.0228 9.7778 22.2219 9.57869 22.2219 9.33336C22.2219 6.88269 20.2281 4.88892 17.7775 4.88892Z" fill="white"/>
<path fill-rule="evenodd" clip-rule="evenodd" d="M17.7775 7.11108C17.5321 7.11108 17.333 7.3102 17.333 7.55553C17.333 7.80086 17.5321 7.99997 17.7775 7.99997C18.5126 7.99997 19.1108 8.5982 19.1108 9.33331C19.1108 9.57864 19.3099 9.77775 19.5552 9.77775C19.8006 9.77775 19.9997 9.57864 19.9997 9.33331C19.9997 8.10797 19.0028 7.11108 17.7775 7.11108Z" fill="white"/>
<path fill-rule="evenodd" clip-rule="evenodd" d="M16.8887 8.88892H7.99984C7.26473 8.88892 6.6665 9.48714 6.6665 10.2222V11.1111H18.2221V10.2222C18.2221 9.48714 17.6238 8.88892 16.8887 8.88892Z" fill="white"/>
<path fill-rule="evenodd" clip-rule="evenodd" d="M6.6665 24.8889H18.2221V12H6.6665V24.8889Z" fill="white"/>
<path fill-rule="evenodd" clip-rule="evenodd" d="M12.4443 26.6667C12.6896 26.6667 12.8887 26.8658 12.8887 27.1112C12.8887 27.3565 12.6896 27.5556 12.4443 27.5556C12.199 27.5556 11.9998 27.3565 11.9998 27.1112C11.9998 26.8658 12.199 26.6667 12.4443 26.6667ZM6.6665 28.0001C6.6665 28.7352 7.26473 29.3334 7.99984 29.3334H16.8887C17.6238 29.3334 18.2221 28.7352 18.2221 28.0001V25.7778H6.6665V28.0001Z" fill="white"/>
</svg>
