<svg width="24" height="24" viewBox="0 0 24 24" fill="none" xmlns="http://www.w3.org/2000/svg">
<path fill-rule="evenodd" clip-rule="evenodd" d="M19.8677 5.34055C20.0456 5.49362 20.1567 5.71014 20.1773 5.94395C20.391 8.65535 20.4998 17.7415 12.8949 20.85C12.398 21.05 11.843 21.05 11.3462 20.85C4.91499 18.2232 4 11.3158 4 7.60705C4 6.93206 4.03 6.36207 4.06375 5.94395C4.08296 5.70975 4.19374 5.49257 4.37205 5.33953C4.55037 5.18649 4.78183 5.10993 5.01624 5.12646C7.59808 5.31395 9.76555 4.67084 11.453 3.21773C11.6139 3.07797 11.8196 3.00069 12.0326 3C12.2457 2.99932 12.4519 3.07526 12.6136 3.21398C14.3049 4.65584 16.5886 5.31583 19.2248 5.12458C19.4591 5.10999 19.6898 5.18749 19.8677 5.34055ZM11.9743 19.3125C12.0682 19.3501 12.1729 19.3501 12.2668 19.3125C18.2386 16.8715 18.664 9.85721 18.5686 6.95456C18.5674 6.91814 18.5521 6.8836 18.5258 6.85837C18.4995 6.83313 18.4644 6.8192 18.4279 6.81956H18.3379C15.9773 6.81956 13.8286 6.16894 12.1224 4.93896C12.0984 4.9216 12.0695 4.91226 12.0399 4.91226C12.0103 4.91226 11.9814 4.9216 11.9574 4.93896C10.2624 6.18582 8.22057 6.81956 5.88998 6.81956H5.8131C5.77666 6.8192 5.74153 6.83313 5.71525 6.85837C5.68896 6.8836 5.67361 6.91814 5.67248 6.95456C5.57686 9.85702 6.00247 16.8713 11.9743 19.3125ZM12.0417 5.22595C13.7704 6.44468 15.9285 7.09155 18.2928 7.10092C18.366 10.0221 17.8785 16.7158 12.1617 19.052C12.1356 19.0614 12.1071 19.0614 12.081 19.052C6.36424 16.7158 5.87487 10.0221 5.948 7.10092C8.27859 7.08967 10.3279 6.45968 12.0417 5.22595ZM13.0523 14.1808V11.9159C13.3448 11.7166 13.5658 11.4289 13.6829 11.0949C13.7999 10.7609 13.8068 10.3981 13.7026 10.0599C13.5984 9.72161 13.3885 9.42567 13.1037 9.21545C12.819 9.00524 12.4744 8.89181 12.1204 8.89181C11.7665 8.89181 11.4219 9.00524 11.1371 9.21545C10.8523 9.42567 10.6425 9.72161 10.5382 10.0599C10.434 10.3981 10.4409 10.7609 10.558 11.0949C10.675 11.4289 10.896 11.7166 11.1886 11.9159V14.1808C11.1886 14.428 11.2867 14.665 11.4615 14.8398C11.6363 15.0145 11.8733 15.1127 12.1204 15.1127C12.3676 15.1127 12.6046 15.0145 12.7793 14.8398C12.9541 14.665 13.0523 14.428 13.0523 14.1808Z" fill="white"/>
</svg>
