<svg width="37" height="35" viewBox="0 0 37 35" fill="none" xmlns="http://www.w3.org/2000/svg">
<path d="M36.7371 1.45746C36.9545 2.67588 35.6498 4.82605 35.1424 5.90113C34.2 7.83628 33.1127 9.69975 31.808 11.4199C29.6334 14.3584 26.9514 16.867 24.0519 19.0888C17.963 23.6041 10.7144 26.1127 3.32071 27.6894C5.35034 25.5393 7.37996 23.3174 9.3371 21.0956C9.84451 20.4506 8.8297 18.3004 9.26462 17.8704C6.07521 20.9523 3.03077 24.2492 0.131299 27.6178C-0.0861619 27.8328 -0.0136753 30.7713 0.203785 30.843C4.9879 32.7782 9.91699 34.785 15.136 35C15.136 35 15.2085 33.6382 15.136 33.5666C11.8016 32.4198 8.39478 31.3447 5.20536 30.0546C14.1937 28.1911 22.8921 24.0342 29.126 17.2253C33.0402 12.9967 38.0418 6.11614 36.8095 0.0240173C36.7371 -0.191002 36.6646 1.0991 36.7371 1.45746Z" fill="white"/>
</svg>
