<svg width="32" height="33" viewBox="0 0 32 33" fill="none" xmlns="http://www.w3.org/2000/svg">
<path d="M27.58 14.1075L25.6075 13.8075C25.3968 13.0447 25.0911 12.3115 24.6975 11.625L25.8825 10.0125C25.9017 9.98546 25.9153 9.95487 25.9225 9.92251C25.9321 9.89519 25.9372 9.86648 25.9375 9.83751C25.9376 9.78765 25.9228 9.7389 25.895 9.69751C25.0659 8.48706 24.021 7.4396 22.8125 6.60753C22.7685 6.57688 22.7162 6.56045 22.6625 6.56045C22.6089 6.56045 22.5566 6.57688 22.5125 6.60753L22.4875 6.62253L20.8901 7.79002C20.1976 7.40334 19.4627 7.09799 18.7001 6.88003L18.4001 4.92254C18.3906 4.86875 18.3657 4.81886 18.3284 4.77893C18.2911 4.739 18.2431 4.71072 18.1901 4.69754C17.4677 4.56424 16.7346 4.49813 16.0001 4.50004C15.267 4.50006 14.5354 4.56869 13.8151 4.70504C13.7615 4.7175 13.7127 4.74549 13.6749 4.78551C13.6371 4.82553 13.612 4.8758 13.6026 4.93004L13.3026 6.89253C12.5445 7.11426 11.8134 7.41946 11.1226 7.80252L9.50012 6.62753H9.48262C9.43957 6.59566 9.38743 6.57846 9.33387 6.57846C9.28031 6.57846 9.22817 6.59566 9.18512 6.62753C7.98014 7.45787 6.93645 8.50071 6.10513 9.70501C6.0784 9.74356 6.06305 9.78886 6.06083 9.83572C6.05862 9.88258 6.06964 9.92912 6.09263 9.97001C6.09955 9.98497 6.10792 9.9992 6.11763 10.0125L7.30013 11.625C6.90653 12.3103 6.60398 13.044 6.40013 13.8075L4.44264 14.105C4.40353 14.1086 4.36557 14.1202 4.33115 14.1391C4.29673 14.158 4.2666 14.1839 4.24264 14.215C4.22009 14.2453 4.2047 14.2804 4.19764 14.3175C4.06259 15.0371 3.99646 15.7679 4.00015 16.5C3.99823 17.2316 4.06097 17.9619 4.18764 18.6825C4.19628 18.7337 4.22066 18.781 4.25739 18.8177C4.29413 18.8545 4.34141 18.8788 4.39264 18.8875H4.43014L6.40513 19.195C6.52444 19.6529 6.68338 20.0996 6.88013 20.53C7.00899 20.82 7.15337 21.1029 7.31263 21.3775L6.13763 22.9699C6.11695 22.9882 6.09998 23.0103 6.08764 23.0349C6.06829 23.0745 6.05972 23.1184 6.0628 23.1623C6.06587 23.2062 6.08047 23.2485 6.10513 23.2849C6.3433 23.6321 6.60035 23.966 6.87513 24.2849C7.55706 25.0739 8.33666 25.7729 9.19512 26.3649C9.23759 26.3924 9.28704 26.4072 9.33762 26.4074C9.39659 26.4044 9.45364 26.3854 9.50262 26.3524L11.1101 25.1749C11.8013 25.5626 12.5354 25.868 13.2976 26.0849L13.5976 28.0549C13.6116 28.1255 13.6496 28.1891 13.7051 28.2349C13.7365 28.2589 13.7735 28.2744 13.8126 28.2799C14.5386 28.411 15.2748 28.4771 16.0126 28.4774C16.7439 28.481 17.4738 28.4148 18.1926 28.2799C18.2426 28.27 18.2886 28.2456 18.3251 28.2099C18.3637 28.166 18.3896 28.1124 18.4001 28.0549L18.7001 26.0849C19.4628 25.8674 20.1977 25.562 20.8901 25.1749L22.5 26.3749L22.5275 26.3974C22.5704 26.4287 22.622 26.4456 22.675 26.4456C22.7281 26.4456 22.7797 26.4287 22.8225 26.3974C23.7036 25.7918 24.4983 25.0693 25.185 24.2499C25.439 23.9492 25.676 23.6345 25.895 23.3074C25.9161 23.2695 25.9283 23.2274 25.9309 23.1841C25.9335 23.1409 25.9264 23.0976 25.91 23.0574C25.9019 23.0397 25.8918 23.023 25.88 23.0074L24.6875 21.4025C24.83 21.1525 24.9725 20.8725 25.1275 20.5525C25.3143 20.1203 25.4713 19.676 25.5975 19.2225L27.57 18.915C27.6257 18.9114 27.6787 18.8893 27.7204 18.8521C27.762 18.815 27.7901 18.7649 27.8 18.71C28.0667 17.2596 28.0667 15.7728 27.8 14.3225C27.7926 14.2673 27.7669 14.2161 27.727 14.1771C27.6871 14.1382 27.6354 14.1137 27.58 14.1075ZM16.0001 21.5675C14.9984 21.5675 14.0193 21.2705 13.1864 20.714C12.3535 20.1576 11.7043 19.3667 11.3209 18.4413C10.9375 17.516 10.837 16.4977 11.0322 15.5153C11.2275 14.5328 11.7096 13.6303 12.4177 12.9219C13.1258 12.2134 14.0281 11.7308 15.0104 11.5351C15.9928 11.3394 17.0111 11.4394 17.9366 11.8223C18.8622 12.2053 19.6534 12.8541 20.2102 13.6867C20.7671 14.5193 21.0646 15.4983 21.0651 16.5C21.0637 17.8431 20.5298 19.1309 19.5803 20.0809C18.6307 21.0309 17.3432 21.5655 16.0001 21.5675Z" fill="white"/>
</svg>
