<svg width="24" height="24" viewBox="0 0 24 24" fill="none" xmlns="http://www.w3.org/2000/svg">
<path d="M20.685 10.2056L19.2056 9.98062C19.0476 9.40855 18.8183 8.85862 18.5232 8.34375L19.4119 7.13438C19.4263 7.1141 19.4365 7.09115 19.4419 7.06688C19.4491 7.04639 19.4529 7.02486 19.4531 7.00313C19.4532 6.96574 19.4421 6.92917 19.4213 6.89814C18.7994 5.99029 18.0157 5.2047 17.1094 4.58065C17.0764 4.55766 17.0371 4.54534 16.9969 4.54534C16.9567 4.54534 16.9174 4.55766 16.8844 4.58065L16.8657 4.5919L15.6675 5.46752C15.1482 5.17751 14.597 4.94849 14.0251 4.78502L13.8001 3.3169C13.7929 3.27656 13.7743 3.23915 13.7463 3.2092C13.7183 3.17925 13.6823 3.15804 13.6426 3.14815C13.1008 3.04818 12.551 2.9986 12.0001 3.00003C11.4502 3.00004 10.9016 3.05152 10.3613 3.15378C10.3211 3.16313 10.2845 3.18412 10.2562 3.21413C10.2279 3.24415 10.209 3.28185 10.2019 3.32253L9.97695 4.7944C9.40837 4.96069 8.86002 5.18959 8.34196 5.47689L7.12509 4.59565H7.11196C7.07968 4.57175 7.04057 4.55885 7.0004 4.55885C6.96023 4.55885 6.92112 4.57175 6.88884 4.59565C5.98511 5.2184 5.20234 6.00053 4.57885 6.90376C4.5588 6.93267 4.54728 6.96664 4.54563 7.00179C4.54397 7.03693 4.55223 7.07184 4.56948 7.10251C4.57466 7.11373 4.58094 7.1244 4.58823 7.13438L5.4751 8.34375C5.1799 8.85771 4.95299 9.40797 4.8001 9.98062L3.33198 10.2037C3.30264 10.2064 3.27418 10.2151 3.24836 10.2293C3.22255 10.2435 3.19995 10.2629 3.18198 10.2862C3.16507 10.309 3.15353 10.3353 3.14823 10.3631C3.04695 10.9028 2.99735 11.4509 3.00011 12C2.99867 12.5487 3.04573 13.0964 3.14073 13.6369C3.14721 13.6753 3.16549 13.7107 3.19305 13.7383C3.2206 13.7658 3.25606 13.7841 3.29448 13.7906H3.32261L4.80385 14.0212C4.89333 14.3647 5.01253 14.6997 5.1601 15.0225C5.25674 15.24 5.36502 15.4522 5.48447 15.6581L4.60323 16.8525C4.58771 16.8662 4.57498 16.8827 4.56573 16.9012C4.55122 16.9309 4.54479 16.9638 4.5471 16.9967C4.5494 17.0296 4.56036 17.0614 4.57885 17.0887C4.75748 17.3491 4.95027 17.5995 5.15635 17.8387C5.6678 18.4304 6.25249 18.9546 6.89634 19.3987C6.92819 19.4193 6.96528 19.4304 7.00321 19.4306C7.04744 19.4283 7.09023 19.4141 7.12696 19.3893L8.33258 18.5062C8.85096 18.7969 9.40158 19.026 9.9732 19.1887L10.1982 20.6662C10.2087 20.7191 10.2372 20.7668 10.2788 20.8012C10.3024 20.8192 10.3301 20.8308 10.3594 20.8349C10.9039 20.9333 11.4561 20.9828 12.0094 20.9831C12.5579 20.9857 13.1054 20.9361 13.6444 20.8349C13.682 20.8275 13.7165 20.8092 13.7438 20.7824C13.7727 20.7495 13.7922 20.7093 13.8001 20.6662L14.0251 19.1887C14.5971 19.0255 15.1483 18.7965 15.6675 18.5062L16.875 19.4062L16.8957 19.4231C16.9278 19.4465 16.9665 19.4592 17.0063 19.4592C17.0461 19.4592 17.0848 19.4465 17.1169 19.4231C17.7777 18.9688 18.3737 18.427 18.8888 17.8125C19.0792 17.5869 19.257 17.3509 19.4213 17.1056C19.437 17.0772 19.4462 17.0456 19.4482 17.0131C19.4501 16.9807 19.4448 16.9482 19.4325 16.9181C19.4264 16.9048 19.4189 16.8922 19.41 16.8806L18.5157 15.6768C18.6225 15.4893 18.7294 15.2793 18.8457 15.0393C18.9857 14.7153 19.1035 14.382 19.1981 14.0418L20.6775 13.8112C20.7193 13.8085 20.759 13.7919 20.7903 13.7641C20.8215 13.7362 20.8426 13.6987 20.85 13.6575C21.05 12.5697 21.05 11.4546 20.85 10.3669C20.8444 10.3254 20.8251 10.2871 20.7953 10.2579C20.7654 10.2286 20.7266 10.2103 20.685 10.2056ZM12.0001 15.8006C11.2488 15.8006 10.5145 15.5778 9.8898 15.1605C9.26514 14.7432 8.77825 14.15 8.49067 13.456C8.2031 12.762 8.12776 11.9983 8.27419 11.2615C8.42061 10.5246 8.78222 9.84775 9.31329 9.31641C9.84437 8.78508 10.5211 8.42313 11.2578 8.27635C11.9946 8.12956 12.7583 8.20452 13.4525 8.49175C14.1466 8.77898 14.74 9.26558 15.1577 9.89003C15.5753 10.5145 15.7984 11.2487 15.7988 12C15.7978 13.0073 15.3973 13.9732 14.6852 14.6857C13.9731 15.3981 13.0074 15.7991 12.0001 15.8006Z" fill="white"/>
</svg>
