<svg width="24" height="24" viewBox="0 0 24 24" fill="none" xmlns="http://www.w3.org/2000/svg">
<path d="M19.9692 18.0898H3.32641C3.10123 18.0898 2.91699 18.2741 2.91699 18.4993V21.5904C2.91699 21.8155 3.10123 21.9998 3.32641 21.9998H19.9794C20.2046 21.9998 20.3888 21.8155 20.3888 21.5904V18.4993C20.3786 18.2741 20.1944 18.0898 19.9692 18.0898Z" fill="white"/>
<path d="M4.84106 16.8616C4.84106 17.0868 5.0253 17.271 5.25048 17.271H18.0447C18.2699 17.271 18.4542 17.0868 18.4542 16.8616V13.9445C18.4542 10.1881 15.404 7.13794 11.6476 7.13794C7.89122 7.13794 4.84106 10.1881 4.84106 13.9445V16.8616Z" fill="white"/>
<path d="M11.6479 6.09417C11.8731 6.09417 12.0574 5.90993 12.0574 5.68475V2.40942C12.0574 2.18424 11.8731 2 11.6479 2C11.4228 2 11.2385 2.18424 11.2385 2.40942V5.68475C11.2385 5.90993 11.4228 6.09417 11.6479 6.09417Z" fill="white"/>
<path d="M5.72167 8.31535C5.80356 8.39723 5.90591 8.43817 6.00827 8.43817C6.11062 8.43817 6.21297 8.39723 6.29486 8.31535C6.45862 8.15158 6.45862 7.89569 6.29486 7.73193L3.99189 5.41872C3.82812 5.25496 3.57224 5.25496 3.40847 5.41872C3.2447 5.58249 3.2447 5.83838 3.40847 6.00214L5.72167 8.31535Z" fill="white"/>
<path d="M4.09417 13.6582C4.09417 13.433 3.90993 13.2488 3.68475 13.2488H0.409417C0.184237 13.2488 0 13.433 0 13.6582C0 13.8834 0.184237 14.0676 0.409417 14.0676H3.68475C3.90993 14.0676 4.09417 13.8834 4.09417 13.6582Z" fill="white"/>
<path d="M17.2771 8.42792C17.3794 8.42792 17.4818 8.38698 17.5637 8.30509L19.8769 5.99189C20.0406 5.82812 20.0406 5.57224 19.8769 5.40847C19.7131 5.2447 19.4572 5.2447 19.2934 5.40847L16.9802 7.72167C16.8165 7.88544 16.8165 8.14133 16.9802 8.30509C17.0724 8.38698 17.1747 8.42792 17.2771 8.42792Z" fill="white"/>
<path d="M22.8867 13.2488H19.6113C19.3861 13.2488 19.2019 13.433 19.2019 13.6582C19.2019 13.8834 19.3861 14.0676 19.6113 14.0676H22.8867C23.1118 14.0676 23.2961 13.8834 23.2961 13.6582C23.2961 13.433 23.1118 13.2488 22.8867 13.2488Z" fill="white"/>
</svg>
