<svg width="24" height="24" viewBox="0 0 24 24" fill="none" xmlns="http://www.w3.org/2000/svg">
<path d="M11.9998 2C6.47778 2 2 6.47778 2 12.0002C2 17.5236 6.47778 22 11.9998 22C17.5222 22 22 17.5236 22 12.0002C22 6.47778 17.5222 2 11.9998 2ZM15.6913 6.98844C16.5693 6.98844 17.2811 7.69911 17.2811 8.57667C17.2811 9.45578 16.5693 10.1664 15.6913 10.1664C14.8138 10.1664 14.1031 9.45578 14.1031 8.57667C14.1031 7.69911 14.8138 6.98844 15.6913 6.98844ZM8.308 6.98844C9.18556 6.98844 9.89733 7.69911 9.89733 8.57667C9.89733 9.45578 9.18556 10.1664 8.308 10.1664C7.43044 10.1664 6.71867 9.45578 6.71867 8.57667C6.71867 7.69911 7.43067 6.98844 8.308 6.98844ZM11.9998 18.9198C8.95489 18.9198 6.44578 16.6358 6.08356 13.688H17.9164C17.5542 16.6356 15.0458 18.9198 11.9998 18.9198Z" fill="white"/>
</svg>
