<svg width="24" height="24" viewBox="0 0 24 24" fill="none" xmlns="http://www.w3.org/2000/svg">
<path d="M3 14.451V9.95028C3 9.50266 3.17782 9.07337 3.49433 8.75685C3.81085 8.44033 4.24014 8.26252 4.68777 8.26252H6.93812L10.7778 4.55787C10.8724 4.45153 10.9972 4.37656 11.1355 4.34293C11.2739 4.3093 11.4191 4.31861 11.552 4.36963C11.6849 4.42065 11.7991 4.51095 11.8794 4.62851C11.9597 4.74606 12.0023 4.88528 12.0014 5.02763V19.3736C12.0023 19.516 11.9597 19.6552 11.8794 19.7728C11.7991 19.8903 11.6849 19.9806 11.552 20.0316C11.4191 20.0827 11.2739 20.092 11.1355 20.0583C10.9972 20.0247 10.8724 19.9497 10.7778 19.8434L6.93812 16.1388H4.68777C4.24014 16.1388 3.81085 15.9609 3.49433 15.6444C3.17782 15.3279 3 14.8986 3 14.451ZM15.211 15.3511C16.0356 14.5098 16.4975 13.3787 16.4975 12.2006C16.4975 11.0226 16.0356 9.89145 15.211 9.05014C15.1335 8.97298 15.0353 8.92006 14.9282 8.89785C14.8211 8.87565 14.7099 8.88512 14.6082 8.92511C14.5064 8.96509 14.4185 9.03387 14.3552 9.12301C14.2919 9.21216 14.256 9.31782 14.2518 9.42707V14.9742C14.256 15.0835 14.2919 15.1891 14.3552 15.2783C14.4185 15.3674 14.5064 15.4362 14.6082 15.4762C14.7099 15.5162 14.8211 15.5256 14.9282 15.5034C15.0353 15.4812 15.1335 15.4283 15.211 15.3511ZM15.8298 20.3385C17.3754 19.6134 18.6825 18.463 19.5981 17.0221C20.5137 15.5812 21 13.9093 21 12.202C21 10.4948 20.5137 8.8229 19.5981 7.38197C18.6825 5.94104 17.3754 4.79071 15.8298 4.06561C15.5649 3.97095 15.2742 3.97896 15.0149 4.08806C14.7556 4.19716 14.5466 4.39943 14.429 4.65501C14.3115 4.91058 14.2939 5.20092 14.3798 5.46879C14.4657 5.73666 14.6489 5.96264 14.8931 6.10218C16.0475 6.64964 17.0229 7.51345 17.7058 8.59322C18.3888 9.673 18.7514 10.9244 18.7514 12.202C18.7514 13.4797 18.3888 14.7311 17.7058 15.8109C17.0229 16.8906 16.0475 17.7544 14.8931 18.3019C14.6489 18.4414 14.4657 18.6674 14.3798 18.9353C14.2939 19.2032 14.3115 19.4935 14.429 19.7491C14.5466 20.0047 14.7556 20.2069 15.0149 20.316C15.2742 20.4251 15.5649 20.4331 15.8298 20.3385Z" fill="white"/>
</svg>
