<svg width="24" height="24" viewBox="0 0 24 24" fill="none" xmlns="http://www.w3.org/2000/svg">
<path d="M7.34692 10.2483C6.7533 11.623 6.37838 12.9665 6.12843 14.06C5.06616 13.7163 3.91016 13.9662 2.47297 14.7786C2.348 14.841 2.16054 14.8098 2.06681 14.6848C1.97308 14.5599 1.97308 14.3724 2.09805 14.2787C3.504 13.0602 5.06616 10.8732 7.34692 10.2483Z" fill="white"/>
<path d="M13.7829 16.6531C13.1581 18.9338 11.0023 20.496 9.75257 21.9019C9.6276 22.0269 9.47138 22.0269 9.34641 21.9332C9.22144 21.8395 9.19019 21.6832 9.25268 21.527C10.065 20.0898 10.3149 18.9338 9.97127 17.8716C11.0648 17.6529 12.4082 17.2779 13.7829 16.6531Z" fill="white"/>
<path d="M15.9077 8.12369C16.4701 8.68607 16.4701 9.59212 15.9077 10.1545C15.3453 10.7169 14.4392 10.7169 13.8769 10.1545C13.3145 9.59212 13.3145 8.68607 13.8769 8.12369C14.4392 7.56131 15.3453 7.56131 15.9077 8.12369Z" fill="white"/>
<path d="M15.0953 3.46851C13.5644 4.09337 12.0335 5.03067 10.7213 6.34288C7.84689 9.21726 6.87835 13.2476 6.56592 15.4034C6.56592 15.4972 6.59716 15.5909 6.65965 15.6846L8.37803 17.403C8.44051 17.4655 8.53424 17.4967 8.59673 17.4967C8.59673 17.4967 8.62797 17.4967 8.65922 17.4967C10.815 17.1843 14.8454 16.1845 17.7198 13.3414C19.032 12.0292 19.9693 10.467 20.5941 8.96732C18.3134 7.71759 16.2826 5.71802 15.0953 3.46851ZM16.3451 10.592C15.5327 11.4043 14.2205 11.373 13.4394 10.592C12.6271 9.77964 12.6271 8.49867 13.4394 7.68634C14.2518 6.87402 15.5327 6.87402 16.3451 7.68634C17.1574 8.46742 17.1574 9.77964 16.3451 10.592Z" fill="white"/>
<path d="M22.0313 2.31243C22.0313 2.49989 21.9688 5.28054 20.8128 8.34238C18.6883 7.21762 16.8137 5.34303 15.6577 3.24973C18.7508 2.06249 21.5314 2 21.7189 2C21.8126 2 21.8751 2.03124 21.9376 2.09373C22.0001 2.15622 22.0313 2.2187 22.0313 2.31243Z" fill="white"/>
<path d="M6.97199 17.0593C7.59686 17.6841 7.59686 18.7151 6.97199 19.3713C6.40961 19.9024 4.28507 20.4648 3.84767 20.5897C3.62897 20.6522 3.41026 20.4335 3.47275 20.2148C3.56648 19.7774 4.12886 17.6216 4.65999 17.0905C5.3161 16.4344 6.34713 16.4032 6.97199 17.0593Z" fill="white"/>
</svg>
