<svg width="90" height="91" viewBox="0 0 90 91" fill="none" xmlns="http://www.w3.org/2000/svg">
<path fill-rule="evenodd" clip-rule="evenodd" d="M41.5238 15.6516C41.5238 13.5947 43.1913 11.9272 45.2482 11.9272C47.3051 11.9272 48.9726 13.5947 48.9726 15.6516V45.4468C48.9726 47.5037 47.3051 49.1712 45.2482 49.1712C43.1913 49.1712 41.5238 47.5037 41.5238 45.4468V15.6516ZM64.6546 28.1071C63.1859 26.4844 63.025 23.9456 64.5727 22.3979C65.9233 21.0473 68.1007 20.9419 69.4277 22.3157C71.998 24.9764 74.112 28.0532 75.6761 31.4231C77.7153 35.8168 78.7705 40.6029 78.7677 45.4468C78.7677 54.3367 75.2362 62.8625 68.9501 69.1486C62.664 75.4348 54.1381 78.9663 45.2482 78.9663C36.3583 78.9663 27.8325 75.4348 21.5463 69.1486C15.2602 62.8625 11.7287 54.3367 11.7287 45.4468C11.7287 36.4534 15.2866 28.3277 21.0769 22.319C22.3995 20.9465 24.5733 21.0475 25.921 22.3952C27.4539 23.9281 27.3038 26.4399 25.8548 28.0523C23.1897 31.0182 21.2284 34.5706 20.1442 38.4451C18.6942 43.6269 18.8843 49.1307 20.6884 54.2001C22.4925 59.2696 25.8221 63.6561 30.2198 66.7569C34.6174 69.8577 39.8673 71.5207 45.2482 71.5175C59.6616 71.5175 71.319 59.8602 71.319 45.4468C71.3257 41.5798 70.4622 37.7608 68.7924 34.2729C67.7149 32.0222 66.3195 29.9466 64.6546 28.1071Z" fill="white"/>
</svg>
