<svg width="24" height="24" viewBox="0 0 24 24" fill="none" xmlns="http://www.w3.org/2000/svg">
<path d="M20.5256 9.2429L14.9897 8.43699L12.4347 3.26328C12.3961 3.18431 12.336 3.11776 12.2615 3.07122C12.1869 3.02468 12.1007 3 12.0128 3C11.9249 3 11.8388 3.02468 11.7642 3.07122C11.6896 3.11776 11.6296 3.18431 11.591 3.26328L9.02003 8.43699L3.47619 9.23295C3.37357 9.2477 3.27713 9.29089 3.19779 9.35763C3.11845 9.42438 3.05938 9.512 3.02728 9.61058C2.99518 9.70917 2.99133 9.81477 3.01615 9.91543C3.04098 10.0161 3.0935 10.1078 3.16776 10.1801L7.18734 14.0982L6.23418 19.7137C6.21862 19.8071 6.22941 19.9031 6.26535 19.9907C6.30129 20.0783 6.36096 20.1542 6.43764 20.2098C6.51433 20.2654 6.605 20.2985 6.69947 20.3055C6.79394 20.3124 6.88846 20.2928 6.97243 20.249L12.0049 17.5984L17.0472 20.249C17.1309 20.2901 17.2242 20.3076 17.3171 20.2994C17.4099 20.2911 17.4987 20.2576 17.5739 20.2024C17.649 20.1472 17.7075 20.0724 17.7431 19.9863C17.7786 19.9001 17.7899 19.8058 17.7755 19.7137L16.8224 14.0982L20.834 10.1881C20.9077 10.1157 20.9597 10.0241 20.9842 9.92375C21.0087 9.82338 21.0047 9.71817 20.9726 9.61995C20.9406 9.52173 20.8817 9.4344 20.8028 9.36779C20.7238 9.30118 20.6278 9.25793 20.5256 9.2429Z" fill="white"/>
</svg>
