<svg width="32" height="32" viewBox="0 0 32 32" fill="none" xmlns="http://www.w3.org/2000/svg">
<path d="M15.9998 2.66675C8.63629 2.66675 2.6665 8.63602 2.6665 16.0001C2.6665 23.3641 8.63629 29.3334 15.9998 29.3334C23.3634 29.3334 29.3332 23.3636 29.3332 16.0001C29.3332 8.63654 23.3634 2.66675 15.9998 2.66675ZM14.7498 8.26206C14.7498 7.57195 15.3097 7.01206 15.9998 7.01206C16.6899 7.01206 17.2498 7.57195 17.2498 8.26206V12.6121C17.2498 13.3022 16.6899 13.8621 15.9998 13.8621C15.3097 13.8621 14.7498 13.3022 14.7498 12.6121V8.26206ZM21.5004 21.5006C20.0311 22.9699 18.078 23.7787 15.9998 23.7787C13.9217 23.7787 11.9686 22.9693 10.4993 21.5006C7.4665 18.4678 7.4665 13.5329 10.4993 10.5001C10.6701 10.3292 10.8524 10.1631 11.041 10.0074C11.5728 9.56727 12.3608 9.64122 12.8009 10.1725C13.2415 10.7042 13.167 11.4923 12.6358 11.9324C12.5071 12.0386 12.3832 12.1516 12.267 12.2678C10.2087 14.3261 10.2087 17.6746 12.267 19.7329C13.2639 20.7298 14.5894 21.2792 15.9998 21.2792C17.4102 21.2792 18.7353 20.7303 19.7326 19.7334C21.791 17.6751 21.791 14.3261 19.7326 12.2683C19.6165 12.1522 19.4925 12.0397 19.3639 11.9329C18.8321 11.4923 18.7582 10.7048 19.1988 10.173C19.6394 9.64122 20.4269 9.56727 20.9587 10.0079C21.1472 10.1641 21.3295 10.3298 21.5004 10.5011C22.9696 11.9704 23.7785 13.9235 23.7785 16.0016C23.7785 18.0798 22.9691 20.0329 21.5004 21.5022V21.5006Z" fill="white"/>
</svg>
