<svg width="24" height="24" viewBox="0 0 24 24" fill='null' xmlns="http://www.w3.org/2000/svg">
<path d="M16.5672 4H6.43275C6.29836 4 6.16947 4.05339 6.07444 4.14841C5.97941 4.24344 5.92603 4.37233 5.92603 4.50672V19.7083C5.92603 19.8427 5.97941 19.9716 6.07444 20.0666C6.16947 20.1617 6.29836 20.215 6.43275 20.215H16.5672C16.7015 20.215 16.8304 20.1617 16.9255 20.0666C17.0205 19.9716 17.0739 19.8427 17.0739 19.7083V4.50672C17.0739 4.37233 17.0205 4.24344 16.9255 4.14841C16.8304 4.05339 16.7015 4 16.5672 4ZM12.0067 18.6949H10.9932C10.8588 18.6949 10.73 18.6415 10.6349 18.5465C10.5399 18.4514 10.4865 18.3226 10.4865 18.1882C10.4865 18.0538 10.5399 17.9249 10.6349 17.8299C10.73 17.7348 10.8588 17.6814 10.9932 17.6814H12.0067C12.1411 17.6814 12.2699 17.7348 12.365 17.8299C12.46 17.9249 12.5134 18.0538 12.5134 18.1882C12.5134 18.3226 12.46 18.4514 12.365 18.5465C12.2699 18.6415 12.1411 18.6949 12.0067 18.6949ZM19.5568 9.28509C19.3383 9.68358 19.2299 10.1331 19.2426 10.5874C19.2301 11.0416 19.3385 11.4911 19.5568 11.8896C19.8414 12.424 19.9844 13.0224 19.9723 13.6277C19.9844 14.233 19.8414 14.8313 19.5568 15.3657C19.3385 15.7643 19.2301 16.2137 19.2426 16.668C19.2426 16.8024 19.1892 16.9313 19.0942 17.0263C18.9992 17.1213 18.8703 17.1747 18.7359 17.1747C18.6015 17.1747 18.4726 17.1213 18.3776 17.0263C18.2826 16.9313 18.2292 16.8024 18.2292 16.668C18.2171 16.0627 18.3601 15.4643 18.6447 14.93C18.863 14.5314 18.9714 14.0819 18.9589 13.6277C18.9714 13.1734 18.863 12.724 18.6447 12.3254C18.3601 11.791 18.2171 11.1927 18.2292 10.5874C18.2171 9.98204 18.3601 9.38371 18.6447 8.84931C18.8632 8.45082 18.9716 8.00133 18.9589 7.54704C18.9589 7.41265 19.0123 7.28376 19.1073 7.18874C19.2023 7.09371 19.3312 7.04032 19.4656 7.04032C19.6 7.04032 19.7289 7.09371 19.8239 7.18874C19.9189 7.28376 19.9723 7.41265 19.9723 7.54704C19.9844 8.15236 19.8414 8.7507 19.5568 9.28509ZM21.5837 11.8846C21.8691 12.4205 22.0122 13.0207 21.9992 13.6277C22.0113 14.233 21.8682 14.8313 21.5837 15.3657C21.3654 15.7643 21.257 16.2137 21.2695 16.668C21.2695 16.8024 21.2161 16.9313 21.1211 17.0263C21.0261 17.1213 20.8972 17.1747 20.7628 17.1747C20.6284 17.1747 20.4995 17.1213 20.4045 17.0263C20.3095 16.9313 20.2561 16.8024 20.2561 16.668C20.244 16.0627 20.387 15.4643 20.6716 14.93C20.8899 14.5314 20.9983 14.0819 20.9858 13.6277C20.9983 13.1734 20.8899 12.724 20.6716 12.3254C20.387 11.791 20.244 11.1927 20.2561 10.5874C20.244 9.98204 20.387 9.38371 20.6716 8.84931C20.8901 8.45082 20.9985 8.00133 20.9858 7.54704C20.9858 7.41265 21.0391 7.28376 21.1342 7.18874C21.2292 7.09371 21.3581 7.04032 21.4925 7.04032C21.6269 7.04032 21.7557 7.09371 21.8508 7.18874C21.9458 7.28376 21.9992 7.41265 21.9992 7.54704C22.0113 8.15236 21.8682 8.7507 21.5837 9.28509C21.3652 9.68358 21.2567 10.1331 21.2695 10.5874C21.257 11.0416 21.3654 11.4911 21.5837 11.8896V11.8846ZM4.3552 12.3254C4.13692 12.724 4.0285 13.1734 4.04103 13.6277C4.0285 14.0819 4.13692 14.5314 4.3552 14.93C4.63976 15.4643 4.7828 16.0627 4.77071 16.668C4.77071 16.8024 4.71732 16.9313 4.62229 17.0263C4.52726 17.1213 4.39838 17.1747 4.26399 17.1747C4.1296 17.1747 4.00071 17.1213 3.90568 17.0263C3.81065 16.9313 3.75727 16.8024 3.75727 16.668C3.7698 16.2137 3.66138 15.7643 3.4431 15.3657C3.15853 14.8313 3.01549 14.233 3.02759 13.6277C3.01549 13.0224 3.15853 12.424 3.4431 11.8896C3.66138 11.4911 3.7698 11.0416 3.75727 10.5874C3.77004 10.1331 3.66161 9.68358 3.4431 9.28509C3.15853 8.7507 3.01549 8.15236 3.02759 7.54704C3.02759 7.41265 3.08098 7.28376 3.176 7.18874C3.27103 7.09371 3.39992 7.04032 3.53431 7.04032C3.6687 7.04032 3.79759 7.09371 3.89261 7.18874C3.98764 7.28376 4.04103 7.41265 4.04103 7.54704C4.02825 8.00133 4.13669 8.45082 4.3552 8.84931C4.63976 9.38371 4.7828 9.98204 4.77071 10.5874C4.7828 11.1927 4.63976 11.791 4.3552 12.3254ZM2.32832 12.3254C2.11004 12.724 2.00162 13.1734 2.01415 13.6277C2.00162 14.0819 2.11004 14.5314 2.32832 14.93C2.61288 15.4643 2.75592 16.0627 2.74383 16.668C2.74383 16.8024 2.69044 16.9313 2.59541 17.0263C2.50038 17.1213 2.3715 17.1747 2.23711 17.1747C2.10271 17.1747 1.97383 17.1213 1.8788 17.0263C1.78377 16.9313 1.73039 16.8024 1.73039 16.668C1.74292 16.2137 1.6345 15.7643 1.41622 15.3657C1.13165 14.8313 0.98861 14.233 1.00071 13.6277C0.98861 13.0224 1.13165 12.424 1.41622 11.8896C1.6345 11.4911 1.74292 11.0416 1.73039 10.5874C1.74316 10.1331 1.63472 9.68358 1.41622 9.28509C1.13165 8.7507 0.98861 8.15236 1.00071 7.54704C1.00071 7.41265 1.05409 7.28376 1.14912 7.18874C1.24415 7.09371 1.37304 7.04032 1.50743 7.04032C1.64182 7.04032 1.77071 7.09371 1.86573 7.18874C1.96076 7.28376 2.01415 7.41265 2.01415 7.54704C2.00137 8.00133 2.10981 8.45082 2.32832 8.84931C2.61288 9.38371 2.75592 9.98204 2.74383 10.5874C2.75592 11.1927 2.61288 11.791 2.32832 12.3254Z" fill="currentColor"/>
</svg>
