<svg width="24" height="24" viewBox="0 0 24 24" fill="none" xmlns="http://www.w3.org/2000/svg">
<path d="M20.4549 9.66156C19.7276 7.09339 17.8413 5.00249 15.3867 4.02522C15.0913 3.91159 14.8186 3.82068 14.5004 3.72977C12.4095 3.13886 10.3868 3.32068 8.63678 4.04795C4.86407 5.61612 2.38682 9.75247 3.45499 14.2524C3.47772 14.3888 3.52317 14.5252 3.56863 14.6615C4.34135 17.5479 6.61407 19.8206 9.50041 20.616C14.6822 22.0479 19.4322 18.8433 20.5458 14.2297C20.8867 12.8206 20.8867 11.2525 20.4549 9.66156ZM8.75042 12.4343C7.8186 12.4343 7.04588 11.6615 7.04588 10.7297C7.04588 9.79792 7.8186 9.0252 8.75042 9.0252C9.68223 9.0252 10.455 9.79792 10.455 10.7297C10.455 11.6615 9.68223 12.4343 8.75042 12.4343ZM13.4322 15.3888L12.3868 17.0933V19.5024C12.3868 19.7297 12.2049 19.8888 12.0004 19.8888C11.7731 19.8888 11.614 19.707 11.614 19.5024V17.0479L10.5231 15.2979C10.364 15.0479 10.3186 14.7297 10.3868 14.457C10.455 14.1843 10.6595 13.9343 10.9095 13.7979C11.5686 13.457 12.3413 13.457 13.0004 13.8206C13.2731 13.9797 13.4549 14.207 13.5458 14.5024C13.6368 14.7979 13.5913 15.1161 13.4322 15.3888ZM15.2504 12.4343C14.3186 12.4343 13.5458 11.6615 13.5458 10.7297C13.5458 9.79792 14.3186 9.0252 15.2504 9.0252C16.1822 9.0252 16.9549 9.79792 16.9549 10.7297C16.9549 11.6615 16.2049 12.4343 15.2504 12.4343Z" fill="white"/>
<path d="M23.0002 11.2532C23.0002 12.0487 22.932 12.8669 22.7729 13.6396C22.682 14.1169 22.5684 14.5941 22.3638 15.026C22.2047 15.3896 21.932 15.935 21.4547 15.9123C21.0456 15.8896 20.7729 15.4123 20.6593 15.026C20.7275 14.8214 20.7957 14.5941 20.8411 14.3896C21.9547 9.7078 19.432 5.41236 15.5229 3.77601C16.4548 2.63965 17.8184 2.9351 18.8184 3.52601C21.2956 5.00328 23.0002 7.91235 23.0002 11.2532Z" fill="white"/>
<path d="M3.3409 14.9803C3.22726 15.3667 2.97726 15.8894 2.54545 15.9121C2.06818 15.9348 1.79545 15.3894 1.63636 15.0258C1.43182 14.5939 1.31818 14.1167 1.22727 13.6394C1.06818 12.8667 1 12.0485 1 11.2531C1 7.91216 2.70454 5.02581 5.20452 3.52582C6.20452 2.93491 7.54542 2.63946 8.47723 3.75309C5.84088 4.82127 3.84089 7.13944 3.15908 9.95761C2.74999 11.7303 2.8409 13.4576 3.3409 14.9803Z" fill="white"/>
</svg>
